<svg version="1.1" xmlns="http://www.w3.org/2000/svg" xmlns:xlink="http://www.w3.org/1999/xlink" width="32" height="32" viewBox="0,0,32,32"><g transform="translate(-224,-164)"><g data-paper-data="{&quot;isPaintingLayer&quot;:true}" fill-rule="nonzero" stroke-linecap="butt" stroke-linejoin="miter" stroke-miterlimit="10" stroke-dasharray="" stroke-dashoffset="0" style="mix-blend-mode: normal"><path d="M224,180c0,-8.83656 7.16344,-16 16,-16c8.83656,0 16,7.16344 16,16c0,8.83656 -7.16345,16 -16,16c-8.83656,0 -16,-7.16344 -16,-16z" fill="#ffffff" stroke="none" stroke-width="0"/><path d="M226.75,180c0,-7.31778 5.93222,-13.25 13.25,-13.25c7.31778,0 13.25,5.93222 13.25,13.25c0,7.31778 -5.93222,13.25 -13.25,13.25c-7.31778,0 -13.25,-5.93222 -13.25,-13.25z" fill="none" stroke="#5b5b5b" stroke-width="2"/><path d="M234.72222,180c0,-2.91484 2.36294,-5.27778 5.27778,-5.27778c2.91484,0 5.27778,2.36294 5.27778,5.27778c0,2.91484 -2.36294,5.27778 -5.27778,5.27778c-2.91484,0 -5.27778,-2.36294 -5.27778,-5.27778z" fill="none" stroke="#4e4e4e" stroke-width="1"/></g></g></svg>