<svg version="1.1" xmlns="http://www.w3.org/2000/svg" xmlns:xlink="http://www.w3.org/1999/xlink" width="85" height="85" viewBox="0,0,85,85"><g transform="translate(-197.5,-137.5)"><g data-paper-data="{&quot;isPaintingLayer&quot;:true}" fill-rule="nonzero" stroke-linecap="butt" stroke-linejoin="miter" stroke-miterlimit="10" stroke-dasharray="" stroke-dashoffset="0" style="mix-blend-mode: normal"><path d="M197.5,180c0,-23.4721 19.0279,-42.5 42.5,-42.5c23.47211,0 42.5,19.0279 42.5,42.5c0,23.47211 -19.02789,42.5 -42.5,42.5c-23.4721,0 -42.5,-19.02789 -42.5,-42.5z" fill="#454545" stroke="none" stroke-width="0"/><path d="M200.75,180c0,-21.67718 17.57282,-39.25 39.25,-39.25c21.67717,0 39.25,17.57282 39.25,39.25c0,21.67718 -17.57283,39.25 -39.25,39.25c-21.67718,0 -39.25,-17.57282 -39.25,-39.25z" fill="#000000" stroke="none" stroke-width="0"/><path d="M203.5,180c0,-20.15839 16.34161,-36.5 36.5,-36.5c20.15839,0 36.5,16.34161 36.5,36.5c0,20.15839 -16.34161,36.5 -36.5,36.5c-20.15839,0 -36.5,-16.34161 -36.5,-36.5z" fill="none" stroke="#b0b0b0" stroke-width="1"/></g></g></svg>